<svg width="24" height="24" viewBox="0 0 24 24" fill="none" xmlns="http://www.w3.org/2000/svg">
<mask id="mask0_388_3117" style="mask-type:alpha" maskUnits="userSpaceOnUse" x="0" y="0" width="24" height="24">
<rect width="24" height="24" fill="#D9D9D9"/>
</mask>
<g mask="url(#mask0_388_3117)">
<path d="M11.1538 13.6538C11.8513 13.6538 12.4423 13.4115 12.9269 12.9269C13.4115 12.4423 13.6538 11.8513 13.6538 11.1538C13.6538 10.4564 13.4115 9.86534 12.9269 9.38073C12.4423 8.89611 11.8513 8.6538 11.1538 8.6538C10.4564 8.6538 9.86534 8.89611 9.38073 9.38073C8.89611 9.86534 8.6538 10.4564 8.6538 11.1538C8.6538 11.8513 8.89611 12.4423 9.38073 12.9269C9.86534 13.4115 10.4564 13.6538 11.1538 13.6538ZM16.0846 17.1538L13.3923 14.4519C13.0589 14.6878 12.7032 14.8637 12.325 14.9798C11.9468 15.0958 11.5564 15.1538 11.1538 15.1538C10.041 15.1538 9.09613 14.7653 8.3192 13.9884C7.54228 13.2115 7.15383 12.2666 7.15383 11.1538C7.15383 10.041 7.54228 9.09613 8.3192 8.3192C9.09613 7.54228 10.041 7.15383 11.1538 7.15383C12.2666 7.15383 13.2115 7.54228 13.9884 8.3192C14.7653 9.09613 15.1538 10.041 15.1538 11.1538C15.1538 11.5564 15.0932 11.9468 14.9721 12.325C14.8509 12.7032 14.6724 13.0589 14.4365 13.3923L17.1538 16.1L16.0846 17.1538ZM5.3077 20.5C4.80257 20.5 4.375 20.325 4.025 19.975C3.675 19.625 3.5 19.1974 3.5 18.6923V15H4.99997V18.6923C4.99997 18.7692 5.03202 18.8397 5.09612 18.9038C5.16024 18.9679 5.23077 19 5.3077 19H8.99998V20.5H5.3077ZM15 20.5V19H18.6923C18.7692 19 18.8397 18.9679 18.9038 18.9038C18.9679 18.8397 19 18.7692 19 18.6923V15H20.5V18.6923C20.5 19.1974 20.325 19.625 19.975 19.975C19.625 20.325 19.1974 20.5 18.6923 20.5H15ZM3.5 8.99998V5.3077C3.5 4.80257 3.675 4.375 4.025 4.025C4.375 3.675 4.80257 3.5 5.3077 3.5H8.99998V4.99998H5.3077C5.23077 4.99998 5.16024 5.03203 5.09612 5.09613C5.03202 5.16024 4.99997 5.23077 4.99997 5.3077V8.99998H3.5ZM19 8.99998V5.3077C19 5.23077 18.9679 5.16024 18.9038 5.09613C18.8397 5.03203 18.7692 4.99998 18.6923 4.99998H15V3.5H18.6923C19.1974 3.5 19.625 3.675 19.975 4.025C20.325 4.375 20.5 4.80257 20.5 5.3077V8.99998H19Z" fill="#00001E"/>
</g>
</svg>
