<svg width="24" height="24" viewBox="0 0 24 24" fill="none" xmlns="http://www.w3.org/2000/svg">
<mask id="mask0_389_3148" style="mask-type:alpha" maskUnits="userSpaceOnUse" x="0" y="0" width="24" height="24">
<rect width="24" height="24" fill="#D9D9D9"/>
</mask>
<g mask="url(#mask0_389_3148)">
<path d="M1.79785 19.3077V17.0846C1.79785 16.5693 1.93087 16.1093 2.1969 15.7049C2.46292 15.3004 2.81818 14.9857 3.2627 14.7608C4.21305 14.2959 5.16867 13.9376 6.12955 13.6856C7.09045 13.4337 8.14654 13.3078 9.29783 13.3078C10.4491 13.3078 11.5052 13.4337 12.4661 13.6856C13.427 13.9376 14.3826 14.2959 15.333 14.7608C15.7775 14.9857 16.1327 15.3004 16.3988 15.7049C16.6648 16.1093 16.7978 16.5693 16.7978 17.0846V19.3077H1.79785ZM18.7978 19.3077V16.9616C18.7978 16.3052 18.6371 15.6796 18.3156 15.0848C17.9942 14.4901 17.5382 13.9798 16.9478 13.5539C17.6183 13.6539 18.2549 13.8087 18.8574 14.0183C19.46 14.228 20.0349 14.4757 20.5824 14.7616C21.099 15.0372 21.4981 15.3621 21.7795 15.7362C22.0609 16.1103 22.2016 16.5188 22.2016 16.9616V19.3077H18.7978ZM9.29783 11.6923C8.33534 11.6923 7.51139 11.3496 6.82598 10.6642C6.14056 9.97879 5.79785 9.15484 5.79785 8.19236C5.79785 7.22986 6.14056 6.40591 6.82598 5.72051C7.51139 5.03509 8.33534 4.69238 9.29783 4.69238C10.2603 4.69238 11.0843 5.03509 11.7697 5.72051C12.4551 6.40591 12.7978 7.22986 12.7978 8.19236C12.7978 9.15484 12.4551 9.97879 11.7697 10.6642C11.0843 11.3496 10.2603 11.6923 9.29783 11.6923ZM17.9324 8.19236C17.9324 9.15484 17.5896 9.97879 16.9042 10.6642C16.2188 11.3496 15.3949 11.6923 14.4324 11.6923C14.3196 11.6923 14.176 11.6795 14.0016 11.6539C13.8273 11.6282 13.6837 11.6 13.5709 11.5693C13.9652 11.0951 14.2683 10.5692 14.4801 9.99133C14.6919 9.4135 14.7978 8.81344 14.7978 8.19116C14.7978 7.56889 14.6898 6.97122 14.4738 6.39813C14.2577 5.82507 13.9568 5.29751 13.5709 4.81546C13.7145 4.76418 13.858 4.73084 14.0016 4.71546C14.1452 4.70008 14.2888 4.69238 14.4324 4.69238C15.3949 4.69238 16.2188 5.03509 16.9042 5.72051C17.5896 6.40591 17.9324 7.22986 17.9324 8.19236ZM3.29783 17.8077H15.2978V17.0846C15.2978 16.8757 15.2456 16.6898 15.1411 16.5269C15.0366 16.3641 14.8709 16.2218 14.644 16.1C13.8209 15.6757 12.9735 15.3542 12.1017 15.1356C11.2299 14.917 10.2953 14.8077 9.29783 14.8077C8.30039 14.8077 7.36578 14.917 6.49398 15.1356C5.62219 15.3542 4.77476 15.6757 3.95168 16.1C3.72476 16.2218 3.55905 16.3641 3.45455 16.5269C3.35007 16.6898 3.29783 16.8757 3.29783 17.0846V17.8077ZM9.29783 10.1924C9.84783 10.1924 10.3187 9.99653 10.7103 9.60486C11.102 9.21319 11.2978 8.74236 11.2978 8.19236C11.2978 7.64236 11.102 7.17153 10.7103 6.77986C10.3187 6.38819 9.84783 6.19236 9.29783 6.19236C8.74783 6.19236 8.27699 6.38819 7.88533 6.77986C7.49366 7.17153 7.29783 7.64236 7.29783 8.19236C7.29783 8.74236 7.49366 9.21319 7.88533 9.60486C8.27699 9.99653 8.74783 10.1924 9.29783 10.1924Z" fill="#00001E"/>
</g>
</svg>
