<svg width="700" height="120" viewBox="0 0 700 120" fill="none" xmlns="http://www.w3.org/2000/svg">
<path d="M30.1797 60L110.18 30L190.18 60L270.18 90L350.18 59.61L430.18 30L510.18 60L590.18 90L670.18 60" stroke="#00001E" stroke-miterlimit="10"/>
<circle cx="30" cy="60" r="30" fill="#FFBE00"/>
<circle cx="110" cy="30" r="30" fill="#ACEC5A"/>
<circle cx="190" cy="60" r="30" fill="#31C8B0"/>
<circle cx="270" cy="90" r="30" fill="#1599D0"/>
<circle cx="350" cy="60" r="30" fill="#4600BE"/>
<circle cx="430" cy="30" r="30" fill="#1599D0"/>
<circle cx="510" cy="60" r="30" fill="#31C8B0"/>
<circle cx="590" cy="90" r="30" fill="#ACEC5A"/>
<circle cx="670" cy="60" r="30" fill="#FFBE00"/>
<path d="M108.393 45L99.1125 17.08H102.713L107.313 31.16L110.393 41.64H110.593L113.753 31.16L118.393 17.08H121.873L112.473 45H108.393Z" fill="#00001E"/>
<path d="M183.06 75V47.08H200.1V50.04H186.42V59.4H199.3V62.36H186.42V72.04H200.1V75H183.06Z" fill="#00001E"/>
<path d="M40.1584 75H19.8384V71.96L35.9584 50.04H20.6784V47.08H39.5984V50.12L23.4384 72.04H40.1584V75Z" fill="#00001E"/>
<path d="M281.158 105H260.838V101.96L276.958 80.04H261.678V77.08H280.598V80.12L264.438 102.04H281.158V105Z" fill="#00001E"/>
<path d="M429.939 45.48C427.672 45.48 425.739 45.0533 424.139 44.2C422.539 43.32 421.179 42.12 420.059 40.6L422.539 38.52C423.526 39.8267 424.619 40.8267 425.819 41.52C427.019 42.1867 428.432 42.52 430.059 42.52C432.059 42.52 433.579 42.04 434.619 41.08C435.686 40.12 436.219 38.84 436.219 37.24C436.219 35.9067 435.819 34.88 435.019 34.16C434.219 33.44 432.899 32.8667 431.059 32.44L428.779 31.92C426.219 31.3333 424.259 30.4533 422.899 29.28C421.566 28.08 420.899 26.4 420.899 24.24C420.899 23.0133 421.126 21.92 421.579 20.96C422.032 20 422.659 19.2 423.459 18.56C424.286 17.92 425.259 17.44 426.379 17.12C427.526 16.7733 428.779 16.6 430.139 16.6C432.246 16.6 434.046 16.9867 435.539 17.76C437.059 18.5333 438.339 19.6667 439.379 21.16L436.859 23C436.086 21.9333 435.152 21.0933 434.059 20.48C432.966 19.8667 431.606 19.56 429.979 19.56C428.192 19.56 426.779 19.9467 425.739 20.72C424.726 21.4667 424.219 22.6 424.219 24.12C424.219 25.4533 424.646 26.4667 425.499 27.16C426.379 27.8267 427.699 28.36 429.459 28.76L431.739 29.28C434.486 29.8933 436.472 30.8267 437.699 32.08C438.926 33.3333 439.539 35 439.539 37.08C439.539 38.36 439.312 39.52 438.859 40.56C438.432 41.6 437.806 42.48 436.979 43.2C436.152 43.92 435.139 44.48 433.939 44.88C432.766 45.28 431.432 45.48 429.939 45.48Z" fill="#00001E"/>
<path d="M508.364 61.28L504.404 65.68V75H501.044V47.08H504.404V61.92H504.524L508.524 57.08L516.964 47.08H521.084L510.684 59.04L521.804 75H517.644L508.364 61.28Z" fill="#00001E"/>
<path d="M350.5 75.48C348.687 75.48 347.047 75.1733 345.58 74.56C344.14 73.92 342.9 73 341.86 71.8C340.847 70.5733 340.06 69.0667 339.5 67.28C338.94 65.4667 338.66 63.3867 338.66 61.04C338.66 58.6933 338.94 56.6267 339.5 54.84C340.06 53.0533 340.847 51.5467 341.86 50.32C342.9 49.0933 344.14 48.1733 345.58 47.56C347.047 46.92 348.687 46.6 350.5 46.6C352.287 46.6 353.913 46.92 355.38 47.56C356.847 48.1733 358.087 49.0933 359.1 50.32C360.14 51.5467 360.94 53.0533 361.5 54.84C362.06 56.6267 362.34 58.6933 362.34 61.04C362.34 63.3867 362.06 65.4667 361.5 67.28C360.94 69.0667 360.14 70.5733 359.1 71.8C358.087 73 356.847 73.92 355.38 74.56C353.913 75.1733 352.287 75.48 350.5 75.48ZM350.5 72.48C351.7 72.48 352.807 72.2667 353.82 71.84C354.833 71.4133 355.7 70.8 356.42 70C357.167 69.2 357.74 68.24 358.14 67.12C358.54 66 358.74 64.7467 358.74 63.36V58.72C358.74 57.3333 358.54 56.08 358.14 54.96C357.74 53.84 357.167 52.88 356.42 52.08C355.7 51.28 354.833 50.6667 353.82 50.24C352.807 49.8133 351.7 49.6 350.5 49.6C349.3 49.6 348.193 49.8133 347.18 50.24C346.167 50.6667 345.287 51.28 344.54 52.08C343.82 52.88 343.26 53.84 342.86 54.96C342.46 56.08 342.26 57.3333 342.26 58.72V63.36C342.26 64.7467 342.46 66 342.86 67.12C343.26 68.24 343.82 69.2 344.54 70C345.287 70.8 346.167 71.4133 347.18 71.84C348.193 72.2667 349.3 72.48 350.5 72.48Z" fill="white"/>
<path d="M590.5 105.48C588.687 105.48 587.047 105.173 585.58 104.56C584.14 103.92 582.9 103 581.86 101.8C580.847 100.573 580.06 99.0667 579.5 97.28C578.94 95.4667 578.66 93.3867 578.66 91.04C578.66 88.6933 578.94 86.6267 579.5 84.84C580.06 83.0533 580.847 81.5467 581.86 80.32C582.9 79.0933 584.14 78.1733 585.58 77.56C587.047 76.92 588.687 76.6 590.5 76.6C592.287 76.6 593.913 76.92 595.38 77.56C596.847 78.1733 598.087 79.0933 599.1 80.32C600.14 81.5467 600.94 83.0533 601.5 84.84C602.06 86.6267 602.34 88.6933 602.34 91.04C602.34 93.3867 602.06 95.4667 601.5 97.28C600.94 99.0667 600.14 100.573 599.1 101.8C598.087 103 596.847 103.92 595.38 104.56C593.913 105.173 592.287 105.48 590.5 105.48ZM590.5 102.48C591.7 102.48 592.807 102.267 593.82 101.84C594.833 101.413 595.7 100.8 596.42 100C597.167 99.2 597.74 98.24 598.14 97.12C598.54 96 598.74 94.7467 598.74 93.36V88.72C598.74 87.3333 598.54 86.08 598.14 84.96C597.74 83.84 597.167 82.88 596.42 82.08C595.7 81.28 594.833 80.6667 593.82 80.24C592.807 79.8133 591.7 79.6 590.5 79.6C589.3 79.6 588.193 79.8133 587.18 80.24C586.167 80.6667 585.287 81.28 584.54 82.08C583.82 82.88 583.26 83.84 582.86 84.96C582.46 86.08 582.26 87.3333 582.26 88.72V93.36C582.26 94.7467 582.46 96 582.86 97.12C583.26 98.24 583.82 99.2 584.54 100C585.287 100.8 586.167 101.413 587.18 101.84C588.193 102.267 589.3 102.48 590.5 102.48Z" fill="#00001E"/>
<path d="M662.091 75V47.08H673.211C675.718 47.08 677.638 47.8 678.971 49.24C680.331 50.6533 681.011 52.6 681.011 55.08C681.011 57.56 680.331 59.52 678.971 60.96C677.638 62.3733 675.718 63.08 673.211 63.08H665.451V75H662.091ZM665.451 60.12H673.211C674.544 60.12 675.571 59.7733 676.291 59.08C677.038 58.3867 677.411 57.4 677.411 56.12V54.04C677.411 52.76 677.038 51.7733 676.291 51.08C675.571 50.3867 674.544 50.04 673.211 50.04H665.451V60.12Z" fill="#00001E"/>
</svg>
