<svg width="20" height="20" viewBox="0 0 20 20" fill="none" xmlns="http://www.w3.org/2000/svg">
<mask id="mask0_299_567" style="mask-type:alpha" maskUnits="userSpaceOnUse" x="0" y="0" width="20" height="20">
<rect width="20" height="20" fill="#D9D9D9"/>
</mask>
<g mask="url(#mask0_299_567)">
<path d="M4.99996 17.5C4.08329 17.5 3.29857 17.1736 2.64579 16.5208C1.99301 15.8681 1.66663 15.0833 1.66663 14.1667C1.66663 13.25 1.99301 12.4653 2.64579 11.8125C3.29857 11.1597 4.08329 10.8333 4.99996 10.8333C5.91663 10.8333 6.70135 11.1597 7.35413 11.8125C8.0069 12.4653 8.33329 13.25 8.33329 14.1667C8.33329 15.0833 8.0069 15.8681 7.35413 16.5208C6.70135 17.1736 5.91663 17.5 4.99996 17.5ZM15 17.5C14.0833 17.5 13.2986 17.1736 12.6458 16.5208C11.993 15.8681 11.6666 15.0833 11.6666 14.1667C11.6666 13.25 11.993 12.4653 12.6458 11.8125C13.2986 11.1597 14.0833 10.8333 15 10.8333C15.9166 10.8333 16.7013 11.1597 17.3541 11.8125C18.0069 12.4653 18.3333 13.25 18.3333 14.1667C18.3333 15.0833 18.0069 15.8681 17.3541 16.5208C16.7013 17.1736 15.9166 17.5 15 17.5ZM9.99996 9.16667C9.08329 9.16667 8.29857 8.84028 7.64579 8.1875C6.99301 7.53472 6.66663 6.75 6.66663 5.83333C6.66663 4.91667 6.99301 4.13194 7.64579 3.47917C8.29857 2.82639 9.08329 2.5 9.99996 2.5C10.9166 2.5 11.7013 2.82639 12.3541 3.47917C13.0069 4.13194 13.3333 4.91667 13.3333 5.83333C13.3333 6.75 13.0069 7.53472 12.3541 8.1875C11.7013 8.84028 10.9166 9.16667 9.99996 9.16667Z" fill="#6E7382"/>
</g>
</svg>
