<svg width="1140" height="390" viewBox="0 0 1140 390" fill="none" xmlns="http://www.w3.org/2000/svg">
<circle cx="120" cy="220" r="20" transform="rotate(90 120 220)" fill="#ACEC5A"/>
<circle cx="370" cy="220" r="20" transform="rotate(90 370 220)" fill="#ACEC5A"/>
<circle cx="170" cy="220" r="20" transform="rotate(90 170 220)" fill="#ACEC5A"/>
<circle cx="420" cy="220" r="20" transform="rotate(90 420 220)" fill="#ACEC5A"/>
<circle cx="220" cy="220" r="20" transform="rotate(90 220 220)" fill="#ACEC5A"/>
<circle cx="120" cy="270" r="20" transform="rotate(90 120 270)" fill="#ACEC5A"/>
<circle cx="120" cy="320" r="20" transform="rotate(90 120 320)" fill="#ACEC5A"/>
<circle cx="20" cy="220" r="20" transform="rotate(90 20 220)" fill="#ACEC5A"/>
<circle cx="470" cy="220" r="20" transform="rotate(90 470 220)" fill="#ACEC5A"/>
<circle cx="270" cy="220" r="20" transform="rotate(90 270 220)" fill="#ACEC5A"/>
<circle cx="370" cy="270" r="20" transform="rotate(90 370 270)" fill="#ACEC5A"/>
<circle cx="170" cy="270" r="20" transform="rotate(90 170 270)" fill="#ACEC5A"/>
<circle cx="70" cy="220" r="20" transform="rotate(90 70 220)" fill="#ACEC5A"/>
<circle cx="420" cy="270" r="20" transform="rotate(90 420 270)" fill="#ACEC5A"/>
<circle cx="320" cy="220" r="20" transform="rotate(90 320 220)" fill="#ACEC5A"/>
<circle cx="220" cy="270" r="20" transform="rotate(90 220 270)" fill="#ACEC5A"/>
<circle cx="20" cy="270" r="20" transform="rotate(90 20 270)" fill="#ACEC5A"/>
<circle cx="20" cy="20" r="20" transform="rotate(90 20 20)" fill="#1599D0"/>
<circle cx="20" cy="320" r="20" transform="rotate(90 20 320)" fill="#ACEC5A"/>
<circle cx="470" cy="270" r="20" transform="rotate(90 470 270)" fill="#ACEC5A"/>
<circle cx="270" cy="270" r="20" transform="rotate(90 270 270)" fill="#ACEC5A"/>
<circle cx="70" cy="270" r="20" transform="rotate(90 70 270)" fill="#ACEC5A"/>
<circle cx="20" cy="170" r="20" transform="rotate(90 20 170)" fill="#ACEC5A"/>
<circle cx="20" cy="70" r="20" transform="rotate(90 20 70)" fill="#31C8B0"/>
<circle cx="70" cy="320" r="20" transform="rotate(90 70 320)" fill="#ACEC5A"/>
<circle cx="20" cy="120" r="20" transform="rotate(90 20 120)" fill="#31C8B0"/>
<circle cx="320" cy="270" r="20" transform="rotate(90 320 270)" fill="#ACEC5A"/>
<circle cx="70" cy="170" r="20" transform="rotate(90 70 170)" fill="#ACEC5A"/>
<circle cx="270" cy="170" r="20" transform="rotate(90 270 170)" fill="#ACEC5A"/>
<circle cx="470" cy="170" r="20" transform="rotate(90 470 170)" fill="#ACEC5A"/>
<circle cx="70" cy="20" r="20" transform="rotate(90 70 20)" fill="#1599D0"/>
<circle cx="270" cy="20" r="20" transform="rotate(90 270 20)" fill="#1599D0"/>
<circle cx="270" cy="70" r="20" transform="rotate(90 270 70)" fill="#31C8B0"/>
<circle cx="270" cy="120" r="20" transform="rotate(90 270 120)" fill="#31C8B0"/>
<circle cx="470" cy="20" r="20" transform="rotate(90 470 20)" fill="#31C8B0"/>
<circle cx="320" cy="170" r="20" transform="rotate(90 320 170)" fill="#ACEC5A"/>
<circle cx="70" cy="70" r="20" transform="rotate(90 70 70)" fill="#31C8B0"/>
<circle cx="470" cy="70" r="20" transform="rotate(90 470 70)" fill="#31C8B0"/>
<circle cx="470" cy="120" r="20" transform="rotate(90 470 120)" fill="#ACEC5A"/>
<circle cx="70" cy="120" r="20" transform="rotate(90 70 120)" fill="#31C8B0"/>
<circle cx="320" cy="70" r="20" transform="rotate(90 320 70)" fill="#31C8B0"/>
<circle cx="320" cy="20" r="20" transform="rotate(90 320 20)" fill="#31C8B0"/>
<circle cx="320" cy="120" r="20" transform="rotate(90 320 120)" fill="#31C8B0"/>
<circle cx="120" cy="170" r="20" transform="rotate(90 120 170)" fill="#ACEC5A"/>
<circle cx="370" cy="170" r="20" transform="rotate(90 370 170)" fill="#ACEC5A"/>
<circle cx="370" cy="20" r="20" transform="rotate(90 370 20)" fill="#31C8B0"/>
<circle cx="370" cy="70" r="20" transform="rotate(90 370 70)" fill="#31C8B0"/>
<circle cx="120" cy="20" r="20" transform="rotate(90 120 20)" fill="#1599D0"/>
<circle cx="370" cy="120" r="20" transform="rotate(90 370 120)" fill="#31C8B0"/>
<circle cx="420" cy="170" r="20" transform="rotate(90 420 170)" fill="#ACEC5A"/>
<circle cx="120" cy="70" r="20" transform="rotate(90 120 70)" fill="#31C8B0"/>
<circle cx="420" cy="20" r="20" transform="rotate(90 420 20)" fill="#31C8B0"/>
<circle cx="120" cy="120" r="20" transform="rotate(90 120 120)" fill="#31C8B0"/>
<circle cx="420" cy="70" r="20" transform="rotate(90 420 70)" fill="#31C8B0"/>
<circle cx="420" cy="120" r="20" transform="rotate(90 420 120)" fill="#31C8B0"/>
<circle cx="170" cy="170" r="20" transform="rotate(90 170 170)" fill="#ACEC5A"/>
<circle cx="170" cy="20" r="20" transform="rotate(90 170 20)" fill="#1599D0"/>
<circle cx="170" cy="70" r="20" transform="rotate(90 170 70)" fill="#31C8B0"/>
<circle cx="170" cy="120" r="20" transform="rotate(90 170 120)" fill="#31C8B0"/>
<circle cx="220" cy="170" r="20" transform="rotate(90 220 170)" fill="#ACEC5A"/>
<circle cx="220" cy="20" r="20" transform="rotate(90 220 20)" fill="#1599D0"/>
<circle cx="220" cy="70" r="20" transform="rotate(90 220 70)" fill="#31C8B0"/>
<circle cx="220" cy="120" r="20" transform="rotate(90 220 120)" fill="#31C8B0"/>
<circle cx="20" cy="20" r="20" transform="matrix(4.37114e-08 1 1 -4.37114e-08 900 250)" fill="#ACEC5A"/>
<circle cx="20" cy="20" r="20" transform="matrix(4.37114e-08 1 1 -4.37114e-08 900 300)" fill="#ACEC5A"/>
<circle cx="20" cy="20" r="20" transform="matrix(4.37114e-08 1 1 -4.37114e-08 900 350)" fill="#ACEC5A"/>
<circle cx="20" cy="20" r="20" transform="matrix(4.37114e-08 1 1 -4.37114e-08 650 300)" fill="#ACEC5A"/>
<circle cx="20" cy="20" r="20" transform="matrix(4.37114e-08 1 1 -4.37114e-08 650 250)" fill="#ACEC5A"/>
<circle cx="20" cy="20" r="20" transform="matrix(4.37114e-08 1 1 -4.37114e-08 650 350)" fill="#ACEC5A"/>
<circle cx="20" cy="20" r="20" transform="matrix(4.37114e-08 1 1 -4.37114e-08 900 150)" fill="#ACEC5A"/>
<circle cx="20" cy="20" r="20" transform="matrix(4.37114e-08 1 1 -4.37114e-08 850 300)" fill="#ACEC5A"/>
<circle cx="20" cy="20" r="20" transform="matrix(4.37114e-08 1 1 -4.37114e-08 900 200)" fill="#ACEC5A"/>
<circle cx="20" cy="20" r="20" transform="matrix(4.37114e-08 1 1 -4.37114e-08 600 300)" fill="#ACEC5A"/>
<circle cx="20" cy="20" r="20" transform="matrix(4.37114e-08 1 1 -4.37114e-08 850 250)" fill="#ACEC5A"/>
<circle cx="20" cy="20" r="20" transform="matrix(4.37114e-08 1 1 -4.37114e-08 850 350)" fill="#ACEC5A"/>
<circle cx="20" cy="20" r="20" transform="matrix(4.37114e-08 1 1 -4.37114e-08 600 250)" fill="#ACEC5A"/>
<circle cx="20" cy="20" r="20" transform="matrix(4.37114e-08 1 1 -4.37114e-08 600 350)" fill="#ACEC5A"/>
<circle cx="20" cy="20" r="20" transform="matrix(4.37114e-08 1 1 -4.37114e-08 800 300)" fill="#ACEC5A"/>
<circle cx="20" cy="20" r="20" transform="matrix(4.37114e-08 1 1 -4.37114e-08 850 150)" fill="#ACEC5A"/>
<circle cx="20" cy="20" r="20" transform="matrix(4.37114e-08 1 1 -4.37114e-08 550 300)" fill="#ACEC5A"/>
<circle cx="20" cy="20" r="20" transform="matrix(4.37114e-08 1 1 -4.37114e-08 850 200)" fill="#ACEC5A"/>
<circle cx="20" cy="20" r="20" transform="matrix(4.37114e-08 1 1 -4.37114e-08 1000 300)" fill="#ACEC5A"/>
<circle cx="20" cy="20" r="20" transform="matrix(4.37114e-08 1 1 -4.37114e-08 550 200)" fill="#ACEC5A"/>
<circle cx="20" cy="20" r="20" transform="matrix(4.37114e-08 1 1 -4.37114e-08 750 300)" fill="#ACEC5A"/>
<circle cx="20" cy="20" r="20" transform="matrix(4.37114e-08 1 1 -4.37114e-08 800 250)" fill="#ACEC5A"/>
<circle cx="20" cy="20" r="20" transform="matrix(1 -8.74228e-08 -8.74228e-08 -1 800 390)" fill="#ACEC5A"/>
<circle cx="20" cy="20" r="20" transform="matrix(4.37114e-08 1 1 -4.37114e-08 550 250)" fill="#ACEC5A"/>
<circle cx="20" cy="20" r="20" transform="matrix(4.37114e-08 1 1 -4.37114e-08 550 350)" fill="#ACEC5A"/>
<circle cx="20" cy="20" r="20" transform="matrix(4.37114e-08 1 1 -4.37114e-08 1000 250)" fill="#ACEC5A"/>
<circle cx="20" cy="20" r="20" transform="matrix(4.37114e-08 1 1 -4.37114e-08 1000 350)" fill="#ACEC5A"/>
<circle cx="20" cy="20" r="20" transform="matrix(4.37114e-08 1 1 -4.37114e-08 750 250)" fill="#ACEC5A"/>
<circle cx="20" cy="20" r="20" transform="matrix(4.37114e-08 1 1 -4.37114e-08 750 350)" fill="#ACEC5A"/>
<circle cx="20" cy="20" r="20" transform="matrix(4.37114e-08 1 1 -4.37114e-08 1000 150)" fill="#ACEC5A"/>
<circle cx="20" cy="20" r="20" transform="matrix(4.37114e-08 1 1 -4.37114e-08 1000 200)" fill="#ACEC5A"/>
<circle cx="20" cy="20" r="20" transform="matrix(4.37114e-08 1 1 -4.37114e-08 950 300)" fill="#ACEC5A"/>
<circle cx="20" cy="20" r="20" transform="matrix(4.37114e-08 1 1 -4.37114e-08 600 200)" fill="#ACEC5A"/>
<circle cx="20" cy="20" r="20" transform="matrix(4.37114e-08 1 1 -4.37114e-08 700 300)" fill="#ACEC5A"/>
<circle cx="20" cy="20" r="20" transform="matrix(4.37114e-08 1 1 -4.37114e-08 800 150)" fill="#ACEC5A"/>
<circle cx="20" cy="20" r="20" transform="matrix(4.37114e-08 1 1 -4.37114e-08 800 200)" fill="#ACEC5A"/>
<circle cx="20" cy="20" r="20" transform="matrix(4.37114e-08 1 1 -4.37114e-08 650 200)" fill="#ACEC5A"/>
<circle cx="20" cy="20" r="20" transform="matrix(4.37114e-08 1 1 -4.37114e-08 750 150)" fill="#ACEC5A"/>
<circle cx="20" cy="20" r="20" transform="matrix(4.37114e-08 1 1 -4.37114e-08 750 200)" fill="#ACEC5A"/>
<circle cx="20" cy="20" r="20" transform="matrix(4.37114e-08 1 1 -4.37114e-08 950 150)" fill="#ACEC5A"/>
<circle cx="20" cy="20" r="20" transform="matrix(4.37114e-08 1 1 -4.37114e-08 950 250)" fill="#ACEC5A"/>
<circle cx="20" cy="20" r="20" transform="matrix(4.37114e-08 1 1 -4.37114e-08 950 350)" fill="#ACEC5A"/>
<circle cx="20" cy="20" r="20" transform="matrix(4.37114e-08 1 1 -4.37114e-08 700 250)" fill="#ACEC5A"/>
<circle cx="20" cy="20" r="20" transform="matrix(4.37114e-08 1 1 -4.37114e-08 700 350)" fill="#ACEC5A"/>
<circle cx="20" cy="20" r="20" transform="matrix(4.37114e-08 1 1 -4.37114e-08 950 200)" fill="#ACEC5A"/>
<circle cx="20" cy="20" r="20" transform="matrix(4.37114e-08 1 1 -4.37114e-08 850 100)" fill="#31C8B0"/>
<circle cx="20" cy="20" r="20" transform="matrix(4.37114e-08 1 1 -4.37114e-08 650 100)" fill="#31C8B0"/>
<circle cx="20" cy="20" r="20" transform="matrix(4.37114e-08 1 1 -4.37114e-08 700 150)" fill="#ACEC5A"/>
<circle cx="20" cy="20" r="20" transform="matrix(4.37114e-08 1 1 -4.37114e-08 700 200)" fill="#ACEC5A"/>
<circle cx="20" cy="20" r="20" transform="matrix(-1 1.74846e-07 1.74846e-07 1 1090 200)" fill="#ACEC5A"/>
<circle cx="20" cy="20" r="20" transform="matrix(-1 1.74846e-07 1.74846e-07 1 1140 200)" fill="#ACEC5A"/>
<circle cx="20" cy="20" r="20" transform="matrix(-1 1.74846e-07 1.74846e-07 1 1090 0)" fill="#1599D0"/>
<circle cx="20" cy="20" r="20" transform="matrix(4.37114e-08 1 1 -4.37114e-08 850 0)" fill="#1599D0"/>
<circle cx="20" cy="20" r="20" transform="matrix(4.37114e-08 1 1 -4.37114e-08 650 0)" fill="#1599D0"/>
<circle cx="20" cy="20" r="20" transform="matrix(4.37114e-08 1 1 -4.37114e-08 850 50)" fill="#31C8B0"/>
<circle cx="20" cy="20" r="20" transform="matrix(4.37114e-08 1 1 -4.37114e-08 800 100)" fill="#31C8B0"/>
<circle cx="20" cy="20" r="20" transform="matrix(4.37114e-08 1 1 -4.37114e-08 650 50)" fill="#31C8B0"/>
<circle cx="20" cy="20" r="20" transform="matrix(4.37114e-08 1 1 -4.37114e-08 1000 100)" fill="#31C8B0"/>
<circle cx="20" cy="20" r="20" transform="matrix(-1 1.74846e-07 1.74846e-07 1 1090 150)" fill="#ACEC5A"/>
<circle cx="20" cy="20" r="20" transform="matrix(4.37114e-08 1 1 -4.37114e-08 600 100)" fill="#31C8B0"/>
<circle cx="20" cy="20" r="20" transform="matrix(-1 1.74846e-07 1.74846e-07 1 1140 150)" fill="#ACEC5A"/>
<circle cx="20" cy="20" r="20" transform="matrix(4.37114e-08 1 1 -4.37114e-08 800 0)" fill="#1599D0"/>
<circle cx="20" cy="20" r="20" transform="matrix(-1 1.74846e-07 1.74846e-07 1 1090 350)" fill="#ACEC5A"/>
<circle cx="20" cy="20" r="20" transform="matrix(-1.31134e-07 -1 -1 1.31134e-07 1140 40)" fill="#1599D0"/>
<circle cx="20" cy="20" r="20" transform="matrix(4.37114e-08 1 1 -4.37114e-08 800 50)" fill="#31C8B0"/>
<circle cx="20" cy="20" r="20" transform="matrix(4.37114e-08 1 1 -4.37114e-08 750 100)" fill="#31C8B0"/>
<circle cx="20" cy="20" r="20" transform="matrix(-1 1.74846e-07 1.74846e-07 1 1090 100)" fill="#31C8B0"/>
<circle cx="20" cy="20" r="20" transform="matrix(4.37114e-08 1 1 -4.37114e-08 1000 0)" fill="#1599D0"/>
<circle cx="20" cy="20" r="20" transform="matrix(4.37114e-08 1 1 -4.37114e-08 600 0)" fill="#1599D0"/>
<circle cx="20" cy="20" r="20" transform="matrix(-1 1.74846e-07 1.74846e-07 1 1140 100)" fill="#31C8B0"/>
<circle cx="20" cy="20" r="20" transform="matrix(4.37114e-08 1 1 -4.37114e-08 1000 50)" fill="#31C8B0"/>
<circle cx="20" cy="20" r="20" transform="matrix(4.37114e-08 1 1 -4.37114e-08 750 0)" fill="#1599D0"/>
<circle cx="20" cy="20" r="20" transform="matrix(4.37114e-08 1 1 -4.37114e-08 600 50)" fill="#31C8B0"/>
<circle cx="20" cy="20" r="20" transform="matrix(4.37114e-08 1 1 -4.37114e-08 750 50)" fill="#31C8B0"/>
<circle cx="20" cy="20" r="20" transform="matrix(4.37114e-08 1 1 -4.37114e-08 950 100)" fill="#31C8B0"/>
<circle cx="20" cy="20" r="20" transform="matrix(-1 1.74846e-07 1.74846e-07 1 1090 300)" fill="#ACEC5A"/>
<circle cx="20" cy="20" r="20" transform="matrix(4.37114e-08 1 1 -4.37114e-08 700 100)" fill="#31C8B0"/>
<circle cx="20" cy="20" r="20" transform="matrix(4.37114e-08 1 1 -4.37114e-08 550 100)" fill="#31C8B0"/>
<circle cx="20" cy="20" r="20" transform="matrix(-1 1.74846e-07 1.74846e-07 1 1090 50)" fill="#31C8B0"/>
<circle cx="20" cy="20" r="20" transform="matrix(-1 1.74846e-07 1.74846e-07 1 1140 300)" fill="#ACEC5A"/>
<circle cx="20" cy="20" r="20" transform="matrix(4.37114e-08 1 1 -4.37114e-08 700 0)" fill="#1599D0"/>
<circle cx="20" cy="20" r="20" transform="matrix(-1.31134e-07 -1 -1 1.31134e-07 1140 90)" fill="#31C8B0"/>
<circle cx="20" cy="20" r="20" transform="matrix(4.37114e-08 1 1 -4.37114e-08 700 50)" fill="#31C8B0"/>
<circle cx="20" cy="20" r="20" transform="matrix(4.37114e-08 1 1 -4.37114e-08 950 0)" fill="#1599D0"/>
<circle cx="20" cy="20" r="20" transform="matrix(4.37114e-08 1 1 -4.37114e-08 550 0)" fill="#4600BE"/>
<circle cx="20" cy="20" r="20" transform="matrix(-1 1.74846e-07 1.74846e-07 1 1090 250)" fill="#ACEC5A"/>
<circle cx="20" cy="20" r="20" transform="matrix(4.37114e-08 1 1 -4.37114e-08 950 50)" fill="#31C8B0"/>
<circle cx="20" cy="20" r="20" transform="matrix(4.37114e-08 1 1 -4.37114e-08 550 50)" fill="#31C8B0"/>
<circle cx="20" cy="20" r="20" transform="matrix(4.37114e-08 1 1 -4.37114e-08 900 100)" fill="#31C8B0"/>
<circle cx="20" cy="20" r="20" transform="matrix(4.37114e-08 1 1 -4.37114e-08 650 150)" fill="#31C8B0"/>
<circle cx="20" cy="20" r="20" transform="matrix(-1 1.74846e-07 1.74846e-07 1 1140 250)" fill="#ACEC5A"/>
<circle cx="20" cy="20" r="20" transform="matrix(4.37114e-08 1 1 -4.37114e-08 600 150)" fill="#31C8B0"/>
<circle cx="20" cy="20" r="20" transform="matrix(4.37114e-08 1 1 -4.37114e-08 900 0)" fill="#1599D0"/>
<circle cx="20" cy="20" r="20" transform="matrix(4.37114e-08 1 1 -4.37114e-08 550 150)" fill="#31C8B0"/>
<circle cx="20" cy="20" r="20" transform="matrix(4.37114e-08 1 1 -4.37114e-08 900 50)" fill="#31C8B0"/>
</svg>
