<svg width="24" height="24" viewBox="0 0 24 24" fill="none" xmlns="http://www.w3.org/2000/svg">
<mask id="mask0_388_3069" style="mask-type:alpha" maskUnits="userSpaceOnUse" x="0" y="0" width="24" height="24">
<rect width="24" height="24" fill="#D9D9D9"/>
</mask>
<g mask="url(#mask0_388_3069)">
<path d="M10.2762 20.0503C9.82966 19.4054 9.4429 18.7093 9.11597 17.9618C8.78904 17.2144 8.52557 16.4105 8.32557 15.5503H4.53067C5.11487 16.7575 5.89287 17.7423 6.86467 18.5045C7.83647 19.2666 8.97366 19.7819 10.2762 20.0503ZM4.07749 14.2939H8.08585C8.02303 13.8905 7.97922 13.5092 7.95442 13.15C7.92964 12.7908 7.91725 12.4161 7.91725 12.0259C7.91725 11.6631 7.92793 11.2942 7.9493 10.9192C7.97066 10.5442 8.01276 10.1426 8.0756 9.71438H4.07749C3.96338 10.09 3.88068 10.4646 3.82939 10.8381C3.77811 11.2116 3.75247 11.6075 3.75247 12.0259C3.75247 12.44 3.77811 12.8287 3.82939 13.192C3.88068 13.5552 3.96338 13.9225 4.07749 14.2939ZM4.53067 8.458H8.31532C8.50934 7.58877 8.7775 6.76835 9.11982 5.99675C9.46214 5.22517 9.85317 4.53873 10.2929 3.93745C8.93692 4.2742 7.78819 4.80988 6.84672 5.5445C5.90525 6.27912 5.13324 7.25028 4.53067 8.458ZM9.61207 8.458H14.3903C14.1463 7.4832 13.8324 6.61952 13.4486 5.86695C13.0649 5.11438 12.5807 4.40177 11.9961 3.72912C11.4157 4.38724 10.9347 5.09665 10.5531 5.85735C10.1715 6.61803 9.85781 7.48492 9.61207 8.458ZM15.6871 8.458H19.4615C18.8794 7.29987 18.0878 6.32881 17.0865 5.54482C16.0852 4.76084 14.9616 4.22847 13.7159 3.9477C14.1236 4.54258 14.4958 5.22475 14.8326 5.9942C15.1693 6.76365 15.4542 7.58492 15.6871 8.458ZM11.9961 21.499C10.6798 21.499 9.44384 21.2538 8.28807 20.7634C7.1323 20.273 6.12494 19.5994 5.26597 18.7426C4.407 17.8857 3.73062 16.8812 3.23682 15.7288C2.743 14.5765 2.49609 13.3422 2.49609 12.0259C2.49609 10.702 2.743 9.46129 3.23682 8.30383C3.73062 7.14634 4.407 6.13918 5.26597 5.28235C6.12494 4.42552 7.1323 3.74742 8.28807 3.24807C9.44384 2.74871 10.6798 2.49902 11.9961 2.49902C13.3157 2.49902 14.5526 2.74871 15.7066 3.24807C16.8607 3.74742 17.8672 4.42552 18.7262 5.28235C19.5851 6.13918 20.2615 7.14634 20.7553 8.30383C21.2491 9.46129 21.4961 10.702 21.4961 12.0259C21.4961 12.2554 21.4891 12.4881 21.4752 12.724C21.4613 12.9599 21.436 13.1926 21.3993 13.4221H20.1076C20.1546 13.1926 20.1884 12.967 20.2089 12.7452C20.2294 12.5234 20.2397 12.2836 20.2397 12.0259C20.2397 11.6075 20.214 11.2116 20.1628 10.8381C20.1115 10.4646 20.0288 10.09 19.9147 9.71438H15.9063C15.9691 10.1674 16.0146 10.5735 16.0428 10.9327C16.071 11.2918 16.0852 11.6563 16.0852 12.0259C16.0852 12.234 16.0818 12.4429 16.0752 12.6525C16.0686 12.8621 16.0535 13.1187 16.03 13.4221H14.757C14.7848 13.1567 14.8037 12.9159 14.8137 12.6997C14.8238 12.4834 14.8288 12.2588 14.8288 12.0259C14.8288 11.6503 14.8164 11.2861 14.7916 10.9333C14.7668 10.5805 14.7196 10.1742 14.6499 9.71438H9.35247C9.2828 10.1742 9.23558 10.5805 9.2108 10.9333C9.18601 11.2861 9.17362 11.6503 9.17362 12.0259C9.17362 12.3905 9.18601 12.7446 9.2108 13.0884C9.23558 13.4322 9.2828 13.834 9.35247 14.2939H13.4191V15.5503H9.61207C9.90737 16.6366 10.2434 17.5523 10.6201 18.2974C10.9968 19.0425 11.4555 19.6928 11.9961 20.2484C12.2734 19.9385 12.5296 19.6054 12.7647 19.249C12.9997 18.8926 13.2179 18.5232 13.4191 18.1407V21.3919C13.1854 21.4287 12.9508 21.4557 12.7153 21.473C12.4798 21.4903 12.2401 21.499 11.9961 21.499ZM19.9461 20.849L16.6243 17.5272V20.2772H15.3679V15.3708H20.2743V16.6272H17.4992L20.8211 19.949L19.9461 20.849Z" fill="#00001E"/>
</g>
</svg>
