<svg width="24" height="24" viewBox="0 0 24 24" fill="none" xmlns="http://www.w3.org/2000/svg">
<mask id="mask0_388_3092" style="mask-type:alpha" maskUnits="userSpaceOnUse" x="0" y="0" width="24" height="24">
<rect width="24" height="24" fill="#D9D9D9"/>
</mask>
<g mask="url(#mask0_388_3092)">
<path d="M2.25 16.6283V15.3719H10.75V16.6283H2.25ZM2.25 8.62825V7.3719H10.75V8.62825H2.25ZM14.3051 19.5597L13.4302 18.6847L16.125 16.0001L13.4302 13.3155L14.3051 12.4405L17 15.1251L19.6846 12.4405L20.5596 13.3155L17.875 16.0001L20.5596 18.6847L19.6846 19.5597L17 16.8751L14.3051 19.5597ZM16.55 10.4751L13.4302 7.3552L14.3051 6.48023L16.525 8.7001L20.8596 4.36548L21.7346 5.26545L16.55 10.4751Z" fill="#00001E"/>
</g>
</svg>
