<svg width="30" height="30" viewBox="0 0 30 30" fill="none" xmlns="http://www.w3.org/2000/svg">
<circle cx="15" cy="15" r="15" fill="#fff"/>
<path d="M15.4847 12.3636C15.4251 11.8598 15.1831 11.4688 14.7589 11.1903C14.3346 10.9119 13.8143 10.7727 13.1978 10.7727C12.747 10.7727 12.3526 10.8456 12.0146 10.9915C11.6798 11.1373 11.418 11.3378 11.229 11.593C11.0434 11.8482 10.9506 12.1383 10.9506 12.4631C10.9506 12.7348 11.0153 12.9685 11.1445 13.1641C11.2771 13.3563 11.4461 13.517 11.6516 13.6463C11.8571 13.7723 12.0726 13.8767 12.2979 13.9595C12.5233 14.0391 12.7305 14.1037 12.9194 14.1534L13.9535 14.4318C14.2186 14.5014 14.5136 14.5975 14.8384 14.7202C15.1665 14.8428 15.4798 15.0102 15.7781 15.2223C16.0797 15.4311 16.3282 15.6996 16.5238 16.0277C16.7193 16.3558 16.8171 16.7585 16.8171 17.2358C16.8171 17.786 16.6729 18.2831 16.3846 18.7273C16.0996 19.1714 15.6819 19.5244 15.1317 19.7862C14.5849 20.0481 13.9203 20.179 13.1381 20.179C12.409 20.179 11.7776 20.0613 11.244 19.826C10.7137 19.5907 10.296 19.2625 9.99112 18.8416C9.68951 18.4207 9.51882 17.9318 9.47905 17.375H10.7518C10.7849 17.7595 10.9142 18.0777 11.1396 18.3295C11.3683 18.5781 11.6566 18.7637 12.0046 18.8864C12.3559 19.0057 12.7338 19.0653 13.1381 19.0653C13.6088 19.0653 14.0314 18.9891 14.4059 18.8366C14.7804 18.6809 15.0771 18.4654 15.2958 18.1903C15.5146 17.9119 15.6239 17.5871 15.6239 17.2159C15.6239 16.8778 15.5295 16.6027 15.3406 16.3906C15.1516 16.1785 14.9031 16.0062 14.5948 15.8736C14.2866 15.741 13.9535 15.625 13.5955 15.5256L12.3427 15.1676C11.5472 14.9389 10.9175 14.6125 10.4535 14.1882C9.98946 13.764 9.75746 13.2088 9.75746 12.5227C9.75746 11.9527 9.91158 11.4555 10.2198 11.0312C10.5314 10.6037 10.949 10.2723 11.4727 10.0369C11.9996 9.7983 12.5879 9.67898 13.2376 9.67898C13.8938 9.67898 14.4772 9.79664 14.9876 10.032C15.498 10.264 15.9023 10.5821 16.2006 10.9865C16.5022 11.3909 16.6613 11.8499 16.6779 12.3636H15.4847ZM20.0772 9.81818V20H18.8443V9.81818H20.0772Z" fill="#00001E"/>
</svg>
