<svg width="860" height="121" viewBox="0 0 860 121" fill="none" xmlns="http://www.w3.org/2000/svg">
<path d="M30 90.05L190.18 33.6L270.18 64.1L350.18 94.6L430.18 63.7L510.18 33.59L590.18 64.09L670.18 94.59L830 30.04" stroke="#00001E" stroke-miterlimit="10"/>
<path d="M110 90.05C126.569 90.05 140 76.6185 140 60.05C140 43.4815 126.569 30.05 110 30.05C93.4315 30.05 80 43.4815 80 60.05C80 76.6185 93.4315 90.05 110 90.05Z" fill="#FFAA00"/>
<path d="M190 60.05C206.569 60.05 220 46.6185 220 30.05C220 13.4815 206.569 0.0500031 190 0.0500031C173.431 0.0500031 160 13.4815 160 30.05C160 46.6185 173.431 60.05 190 60.05Z" fill="#ACEC5A"/>
<path d="M270 90.05C286.569 90.05 300 76.6185 300 60.05C300 43.4815 286.569 30.05 270 30.05C253.431 30.05 240 43.4815 240 60.05C240 76.6185 253.431 90.05 270 90.05Z" fill="#31C8B0"/>
<path d="M350 120.05C366.569 120.05 380 106.619 380 90.05C380 73.4815 366.569 60.05 350 60.05C333.431 60.05 320 73.4815 320 90.05C320 106.619 333.431 120.05 350 120.05Z" fill="#1599D0"/>
<path d="M430 90.05C446.569 90.05 460 76.6185 460 60.05C460 43.4815 446.569 30.05 430 30.05C413.431 30.05 400 43.4815 400 60.05C400 76.6185 413.431 90.05 430 90.05Z" fill="#4600BE"/>
<path d="M510 60.05C526.569 60.05 540 46.6185 540 30.05C540 13.4815 526.569 0.0500031 510 0.0500031C493.431 0.0500031 480 13.4815 480 30.05C480 46.6185 493.431 60.05 510 60.05Z" fill="#1599D0"/>
<path d="M590 90.05C606.569 90.05 620 76.6185 620 60.05C620 43.4815 606.569 30.05 590 30.05C573.431 30.05 560 43.4815 560 60.05C560 76.6185 573.431 90.05 590 90.05Z" fill="#31C8B0"/>
<path d="M670 120.05C686.569 120.05 700 106.619 700 90.05C700 73.4815 686.569 60.05 670 60.05C653.431 60.05 640 73.4815 640 90.05C640 106.619 653.431 120.05 670 120.05Z" fill="#ACEC5A"/>
<path d="M750 90.05C766.569 90.05 780 76.6185 780 60.05C780 43.4815 766.569 30.05 750 30.05C733.431 30.05 720 43.4815 720 60.05C720 76.6185 733.431 90.05 750 90.05Z" fill="#FFAA00"/>
<path d="M830 60C846.569 60 860 46.5685 860 30C860 13.4315 846.569 0 830 0C813.431 0 800 13.4315 800 30C800 46.5685 813.431 60 830 60Z" fill="#ACEC5A"/>
<path d="M823.059 45V17.08H840.099V20.04H826.419V29.4H839.299V32.36H826.419V42.04H840.099V45H823.059Z" fill="#00001E"/>
<path d="M103.24 75.17V47.25H120.28V50.21H106.6V59.57H119.48V62.53H106.6V72.21H120.28V75.17H103.24Z" fill="#00001E"/>
<path d="M509.939 45.53C507.669 45.53 505.739 45.1 504.139 44.25C502.539 43.37 501.179 42.17 500.059 40.65L502.539 38.57C503.529 39.88 504.619 40.88 505.819 41.57C507.019 42.24 508.429 42.57 510.059 42.57C512.059 42.57 513.579 42.09 514.619 41.13C515.689 40.17 516.219 38.89 516.219 37.29C516.219 35.96 515.819 34.93 515.019 34.21C514.219 33.49 512.899 32.92 511.059 32.49L508.779 31.97C506.219 31.38 504.259 30.5 502.899 29.33C501.569 28.13 500.899 26.45 500.899 24.29C500.899 23.06 501.129 21.97 501.579 21.01C502.029 20.05 502.659 19.25 503.459 18.61C504.289 17.97 505.259 17.49 506.379 17.17C507.529 16.82 508.779 16.65 510.139 16.65C512.249 16.65 514.049 17.04 515.539 17.81C517.059 18.58 518.339 19.72 519.379 21.21L516.859 23.05C516.089 21.98 515.149 21.14 514.059 20.53C512.969 19.92 511.609 19.61 509.979 19.61C508.189 19.61 506.779 20 505.739 20.77C504.729 21.52 504.219 22.65 504.219 24.17C504.219 25.5 504.649 26.52 505.499 27.21C506.379 27.88 507.699 28.41 509.459 28.81L511.739 29.33C514.489 29.94 516.469 30.88 517.699 32.13C518.929 33.38 519.539 35.05 519.539 37.13C519.539 38.41 519.309 39.57 518.859 40.61C518.429 41.65 517.809 42.53 516.979 43.25C516.149 43.97 515.139 44.53 513.939 44.93C512.769 45.33 511.429 45.53 509.939 45.53Z" fill="#00001E"/>
<path d="M430.5 75.53C428.69 75.53 427.05 75.22 425.58 74.61C424.14 73.97 422.9 73.05 421.86 71.85C420.85 70.62 420.06 69.12 419.5 67.33C418.94 65.52 418.66 63.44 418.66 61.09C418.66 58.74 418.94 56.68 419.5 54.89C420.06 53.1 420.85 51.6 421.86 50.37C422.9 49.14 424.14 48.22 425.58 47.61C427.05 46.97 428.69 46.65 430.5 46.65C432.31 46.65 433.91 46.97 435.38 47.61C436.85 48.22 438.09 49.14 439.1 50.37C440.14 51.6 440.94 53.1 441.5 54.89C442.06 56.68 442.34 58.74 442.34 61.09C442.34 63.44 442.06 65.52 441.5 67.33C440.94 69.12 440.14 70.62 439.1 71.85C438.09 73.05 436.85 73.97 435.38 74.61C433.91 75.22 432.29 75.53 430.5 75.53ZM430.5 72.53C431.7 72.53 432.81 72.32 433.82 71.89C434.83 71.46 435.7 70.85 436.42 70.05C437.17 69.25 437.74 68.29 438.14 67.17C438.54 66.05 438.74 64.8 438.74 63.41V58.77C438.74 57.38 438.54 56.13 438.14 55.01C437.74 53.89 437.17 52.93 436.42 52.13C435.7 51.33 434.83 50.72 433.82 50.29C432.81 49.86 431.7 49.65 430.5 49.65C429.3 49.65 428.19 49.86 427.18 50.29C426.17 50.72 425.29 51.33 424.54 52.13C423.82 52.93 423.26 53.89 422.86 55.01C422.46 56.13 422.26 57.38 422.26 58.77V63.41C422.26 64.8 422.46 66.05 422.86 67.17C423.26 68.29 423.82 69.25 424.54 70.05C425.29 70.85 426.17 71.46 427.18 71.89C428.19 72.32 429.3 72.53 430.5 72.53Z" fill="white"/>
<path d="M670.5 105.53C668.69 105.53 667.05 105.22 665.58 104.61C664.14 103.97 662.9 103.05 661.86 101.85C660.85 100.62 660.06 99.12 659.5 97.33C658.94 95.52 658.66 93.44 658.66 91.09C658.66 88.74 658.94 86.68 659.5 84.89C660.06 83.1 660.85 81.6 661.86 80.37C662.9 79.14 664.14 78.22 665.58 77.61C667.05 76.97 668.69 76.65 670.5 76.65C672.31 76.65 673.91 76.97 675.38 77.61C676.85 78.22 678.09 79.14 679.1 80.37C680.14 81.6 680.94 83.1 681.5 84.89C682.06 86.68 682.34 88.74 682.34 91.09C682.34 93.44 682.06 95.52 681.5 97.33C680.94 99.12 680.14 100.62 679.1 101.85C678.09 103.05 676.85 103.97 675.38 104.61C673.91 105.22 672.29 105.53 670.5 105.53ZM670.5 102.53C671.7 102.53 672.81 102.32 673.82 101.89C674.83 101.46 675.7 100.85 676.42 100.05C677.17 99.25 677.74 98.29 678.14 97.17C678.54 96.05 678.74 94.8 678.74 93.41V88.77C678.74 87.38 678.54 86.13 678.14 85.01C677.74 83.89 677.17 82.93 676.42 82.13C675.7 81.33 674.83 80.72 673.82 80.29C672.81 79.86 671.7 79.65 670.5 79.65C669.3 79.65 668.19 79.86 667.18 80.29C666.17 80.72 665.29 81.33 664.54 82.13C663.82 82.93 663.26 83.89 662.86 85.01C662.46 86.13 662.26 87.38 662.26 88.77V93.41C662.26 94.8 662.46 96.05 662.86 97.17C663.26 98.29 663.82 99.25 664.54 100.05C665.29 100.85 666.17 101.46 667.18 101.89C668.19 102.32 669.3 102.53 670.5 102.53Z" fill="#00001E"/>
<path d="M742.09 75.05V47.13H753.21C755.72 47.13 757.64 47.85 758.97 49.29C760.33 50.7 761.01 52.65 761.01 55.13C761.01 57.61 760.33 59.57 758.97 61.01C757.64 62.42 755.72 63.13 753.21 63.13H745.45V75.05H742.09ZM745.45 60.17H753.21C754.54 60.17 755.57 59.82 756.29 59.13C757.04 58.44 757.41 57.45 757.41 56.17V54.09C757.41 52.81 757.04 51.82 756.29 51.13C755.57 50.44 754.54 50.09 753.21 50.09H745.45V60.17Z" fill="#00001E"/>
<path d="M351.681 80.09V105.05H348.321V80.09H339.441V77.13H360.561V80.09H351.681Z" fill="#00001E"/>
<path d="M591.14 75.53C587.59 75.53 584.83 74.32 582.86 71.91C580.89 69.5 579.9 65.94 579.9 61.25C579.9 56.56 580.89 52.95 582.86 50.43C584.83 47.91 587.59 46.65 591.14 46.65C593.49 46.65 595.45 47.18 597.04 48.23C598.63 49.28 599.86 50.78 600.74 52.73L598.02 54.37C597.46 52.93 596.61 51.78 595.46 50.91C594.31 50.04 592.87 49.61 591.14 49.61C589.94 49.61 588.87 49.84 587.92 50.29C586.97 50.74 586.17 51.39 585.52 52.24C584.87 53.08 584.37 54.09 584.02 55.25C583.67 56.41 583.5 57.72 583.5 59.16V63.33C583.5 66.22 584.17 68.48 585.5 70.11C586.83 71.74 588.71 72.56 591.14 72.56C592.93 72.56 594.42 72.1 595.62 71.18C596.82 70.26 597.7 69.04 598.26 67.52L600.94 69.2C600.06 71.17 598.79 72.72 597.14 73.84C595.49 74.96 593.49 75.52 591.14 75.52V75.53Z" fill="#00001E"/>
<path d="M278.38 75.05L275.58 66.81H264.3L261.5 75.05H258.1L267.86 47.13H272.14L281.9 75.05H278.38ZM270.02 50.25H269.82L265.1 63.85H274.74L270.02 50.25Z" fill="#00001E"/>
<path d="M30 120.05C46.5685 120.05 60 106.619 60 90.05C60 73.4815 46.5685 60.05 30 60.05C13.4315 60.05 0 73.4815 0 90.05C0 106.619 13.4315 120.05 30 120.05Z" fill="#ACEC5A"/>
<path d="M24.2799 105.05H20.9199V77.13H32.0399C34.4899 77.13 36.4099 77.81 37.7799 79.17C39.1499 80.53 39.8399 82.49 39.8399 85.05C39.8399 87.1 39.3699 88.79 38.4199 90.11C37.4699 91.43 36.0799 92.3 34.2399 92.73L40.6399 105.05H36.8399L30.7999 93.05H24.2799V105.05ZM32.0399 90.17C33.3699 90.17 34.4099 89.82 35.1399 89.13C35.8699 88.44 36.2399 87.45 36.2399 86.17V84.09C36.2399 82.81 35.8699 81.82 35.1399 81.13C34.4099 80.44 33.3699 80.09 32.0399 80.09H24.2799V90.17H32.0399Z" fill="#00001E"/>
<path d="M183.699 45.05V17.13H187.059V42.09H198.939V45.05H183.699Z" fill="#00001E"/>
</svg>
