<svg width="20" height="20" viewBox="0 0 20 20" fill="none" xmlns="http://www.w3.org/2000/svg">
<mask id="mask0_339_677" style="mask-type:alpha" maskUnits="userSpaceOnUse" x="0" y="0" width="20" height="20">
<rect width="20" height="20" fill="#D9D9D9"/>
</mask>
<g mask="url(#mask0_339_677)">
<path d="M10.0001 10.0007C9.08345 10.0007 8.29873 9.67426 7.64595 9.02148C6.99317 8.36871 6.66678 7.58398 6.66678 6.66732C6.66678 5.75065 6.99317 4.96593 7.64595 4.31315C8.29873 3.66037 9.08345 3.33398 10.0001 3.33398C10.9168 3.33398 11.7015 3.66037 12.3543 4.31315C13.0071 4.96593 13.3334 5.75065 13.3334 6.66732C13.3334 7.58398 13.0071 8.36871 12.3543 9.02148C11.7015 9.67426 10.9168 10.0007 10.0001 10.0007ZM3.33345 16.6673V14.334C3.33345 13.8618 3.45498 13.4277 3.69803 13.0319C3.94109 12.6361 4.26401 12.334 4.66678 12.1257C5.52789 11.6951 6.40289 11.3722 7.29178 11.1569C8.18067 10.9416 9.08345 10.834 10.0001 10.834C10.9168 10.834 11.8196 10.9416 12.7084 11.1569C13.5973 11.3722 14.4723 11.6951 15.3334 12.1257C15.7362 12.334 16.0591 12.6361 16.3022 13.0319C16.5453 13.4277 16.6668 13.8618 16.6668 14.334V16.6673H3.33345Z" fill="#6E7382"/>
</g>
</svg>
